<?xml version="1.0" encoding="utf-8"?>
<!-- Generator: Adobe Illustrator 23.0.1, SVG Export Plug-In . SVG Version: 6.00 Build 0)  -->
<svg version="1.1" id="Capa_1" xmlns="http://www.w3.org/2000/svg" xmlns:xlink="http://www.w3.org/1999/xlink" x="0px" y="0px"
	 viewBox="0 0 241.7 241.7" style="enable-background:new 0 0 241.7 241.7;" xml:space="preserve">
<style type="text/css">
	.st0{fill:#FFFFFF;}
</style>
<g>
	<path class="st0" d="M234.8,181.2l-34.9-35c-4.7-4.7-11-7.2-17.7-7.2c-7,0-13.6,2.8-18.6,7.7L150,160.4
		c-10.6-5.9-24.6-14-39.2-28.5c-14.6-14.6-22.6-28.6-28.5-39.2L95.8,79c10.1-10.1,10.3-26.4,0.5-36.3L61.4,7.8
		c-4.7-4.7-11-7.3-17.7-7.3c-6.8,0-13.3,2.6-18.3,7.4c-3,2.4-18.1,15.7-23.7,43.1C-6.1,89.4,12,126.3,64.1,178.5
		c58.2,58.2,107.9,62.7,121.7,62.7c2.9,0,4.6-0.2,5.1-0.2c27.1-3.2,36.9-15.2,44-24C244.1,205.5,244,190.5,234.8,181.2z
		 M223.2,207.5c-6.7,8.3-13,16.1-34,18.6c0,0-1.2,0.1-3.3,0.1c-12.4,0-57-4.2-111.1-58.3c-48.1-48.1-64.9-81-58.2-113.8
		C21.3,30.2,34.3,20,34.8,19.6l0.4-0.3l0.4-0.4c2.2-2.2,5-3.4,8-3.4c2.7,0,5.2,1,7.1,2.9l34.9,34.9c4,4,3.8,10.8-0.5,15.1L69.8,83.8
		l-0.3,0.3c-4,4.4-3.5,10.4-1.3,14.3c6.4,11.5,15.1,27.3,31.9,44.1c16.8,16.8,32.5,25.5,44,31.8c1.1,0.6,3.5,1.7,6.5,1.7
		c3.5,0,6.7-1.5,9.1-4.2l14.4-14.4c2.2-2.2,5-3.3,8-3.3c2.7,0,5.2,1,7.1,2.9l34.9,34.9C228.6,196.3,226.8,203.1,223.2,207.5z"/>
</g>
</svg>
